<svg xmlns="http://www.w3.org/2000/svg" width="284.328" height="40.554" viewBox="0 0 284.328 40.554"><g transform="translate(-121.517 -147.307)"><path d="M210.862,151.557h0Z" transform="translate(-36.677 -1.745)" fill="#fff"/><path d="M214.854,163.5c.03.04.065.074.1.113-.057-.074-.116-.146-.17-.22C214.8,163.43,214.827,163.468,214.854,163.5Z" transform="translate(-38.285 -6.604)" fill="#fff"/><g transform="translate(398.651 180.696)"><path d="M598.353,205.736a3.5,3.5,0,0,0-1.32-1.311,3.613,3.613,0,0,0-3.6,0,3.491,3.491,0,0,0-1.315,1.316,3.6,3.6,0,1,0,6.231-.009Zm-.437,3.344a3.106,3.106,0,0,1-1.131,1.123,3.021,3.021,0,0,1-1.546.415,3.093,3.093,0,0,1-3.095-3.085,2.985,2.985,0,0,1,.419-1.546,3.106,3.106,0,0,1,1.131-1.123,3.093,3.093,0,0,1,3.1,0,3.107,3.107,0,0,1,1.126,1.127,3.059,3.059,0,0,1,0,3.087Z" transform="translate(-591.643 -203.948)" fill="#fff"/><path d="M598.077,208.359a1.313,1.313,0,0,0-.167-1.618,1.8,1.8,0,0,0-1.165-.31H595.5v4.247h.708v-1.688h.646l.99,1.688h.8l-1.138-1.883A1.2,1.2,0,0,0,598.077,208.359Zm-1.355.045h-.517v-1.369h.507a1.086,1.086,0,0,1,.65.156.6.6,0,0,1,.206.512.63.63,0,0,1-.232.5A.915.915,0,0,1,596.722,208.4Z" transform="translate(-593.225 -204.967)" fill="#fff"/></g><path d="M219.1,147.338a20.609,20.609,0,0,0-20.67,18.055c-1.243,10.531,5.934,18.644,16.668,18.845a20.429,20.429,0,0,0,20.8-18.264C237.083,155.589,229.823,147.533,219.1,147.338Zm-3.237,29.331a9.593,9.593,0,0,1-9.206-10.988,11.985,11.985,0,0,1,11.924-10.715c5.6.084,9.681,5.038,9.031,10.975A11.9,11.9,0,0,1,215.859,176.669Z" transform="translate(-31.515 -0.011)" fill="#fff"/><path d="M296.462,171.024a11.615,11.615,0,0,1-9.983,5.617,9.593,9.593,0,0,1-9.207-10.987A11.985,11.985,0,0,1,289.2,154.939a8.986,8.986,0,0,1,7.506,4.187l6.323-5.769a17.25,17.25,0,0,0-13.311-6.046,20.608,20.608,0,0,0-20.67,18.055c-1.243,10.531,5.933,18.644,16.668,18.844a20.388,20.388,0,0,0,16.125-7.317l-5.338-5.906Z" transform="translate(-60.505 0)" fill="#fff"/><path d="M145.525,148.968H121.552a6.7,6.7,0,0,0,6.78,7.5s14.524-.011,16.981-.011v.011a9.333,9.333,0,0,1,9.449,10.453A11.761,11.761,0,0,1,143.3,177.375h-8.8l1.078-11.224a4.637,4.637,0,0,0-4.695-5.194h-2.307s-2.087,21.832-2.289,23.918c0,0,14.537-.011,16.293-.011h0a20.167,20.167,0,0,0,19.735-18.816C162.792,156.395,155.19,148.968,145.525,148.968Z" transform="translate(0 -0.682)" fill="#fff"/><g transform="translate(315.331 148.286)"><path d="M466.97,148.968,450.3,184.96h9.047l4.329-9.811h11.536l2.651,9.811h9.33l-9.922-35.992Zm4.125,8.087c.28,1.4.591,2.906.953,4.3l2.083,7.718H465.9l3.519-7.753C470,159.972,470.558,158.5,471.094,157.055Z" transform="translate(-450.301 -148.968)" fill="#fff"/><path d="M558.781,148.968l-5.817,16.189c-1.032,3.021-1.982,5.828-2.818,8.529-.276-2.876-.65-5.712-1-8.238l-2.473-16.48h-8.808l-5.96,16.186c-1.074,2.992-2.175,6.058-3.084,8.919-.317-2.9-.695-5.979-1.084-8.831l-2.344-16.275H516.13l6.6,35.992h9l6.365-16.815c1.013-2.555,1.844-4.889,2.61-7.343.2,2.216.5,4.526.941,7.307l2.617,16.851h8.894l14.553-35.992Z" transform="translate(-477.325 -148.968)" fill="#fff"/></g><path d="M410.125,176.505l2.644-27.537h-9.036l-3.448,35.908h23.847l2.15-8.37Z" transform="translate(-114.438 -0.682)" fill="#fff"/><path d="M367.239,150.151l.087-.907h-8.377c-.046.48-.091.959-.138,1.437-.625,6.357-1.168,12.716-1.9,19.071-.548,4.738-3.493,7.515-7.91,7.788-.2.012-.983.012-1.181,0-4.365-.273-6.776-3.051-6.414-7.788.485-6.355,1.163-12.714,1.758-19.071.045-.479.092-.957.138-1.437H334.92l-.087.907c-.646,6.731-1.318,13.463-1.916,20.195a24.525,24.525,0,0,0,.041,4.321c.676,7.627,6.637,10.4,14.726,10.4,7.423,0,14.582-2.769,16.723-10.4a26.049,26.049,0,0,0,.871-4.321C365.971,163.615,366.592,156.883,367.239,150.151Z" transform="translate(-86.751 -0.795)" fill="#fff"/></g></svg>