<svg xmlns="http://www.w3.org/2000/svg" xmlns:xlink="http://www.w3.org/1999/xlink" width="199.5" height="28.455" viewBox="0 0 199.5 28.455"><defs><linearGradient id="a" x1="0.499" y1="84.641" x2="0.499" y2="-31.653" gradientUnits="objectBoundingBox"><stop offset="0" stop-color="#dc2d26"/><stop offset="0.01" stop-color="#dc2d25"/><stop offset="0.397" stop-color="#e44a24"/><stop offset="0.733" stop-color="#ea5b23"/><stop offset="0.98" stop-color="#ec6223"/></linearGradient></defs><g transform="translate(-121.517 -147.307)"><path d="M210.862,151.557h0Z" transform="translate(-52.391 -2.492)" fill="#ec6223"/><path d="M214.832,163.47c.021.028.046.052.067.079-.04-.052-.081-.1-.12-.155C214.8,163.419,214.813,163.446,214.832,163.47Z" transform="translate(-54.687 -9.434)" fill="url(#a)"/><g transform="translate(315.969 170.735)"><path d="M596.351,205.2a2.456,2.456,0,0,0-.926-.92,2.535,2.535,0,0,0-2.523,0,2.45,2.45,0,0,0-.923.923,2.523,2.523,0,1,0,4.372-.007Zm-.307,2.346a2.179,2.179,0,0,1-.793.788,2.119,2.119,0,0,1-1.085.291,2.171,2.171,0,0,1-2.172-2.164,2.1,2.1,0,0,1,.294-1.085,2.18,2.18,0,0,1,.794-.788,2.17,2.17,0,0,1,2.173,0,2.181,2.181,0,0,1,.79.791,2.146,2.146,0,0,1,0,2.166Z" transform="translate(-591.643 -203.948)" fill="#4c4e52"/><path d="M597.307,207.784a.921.921,0,0,0-.117-1.135,1.262,1.262,0,0,0-.817-.218H595.5v2.98h.5v-1.184h.453l.695,1.184h.564l-.8-1.321A.843.843,0,0,0,597.307,207.784Zm-.951.032h-.363v-.96h.356a.762.762,0,0,1,.456.109.422.422,0,0,1,.145.359.442.442,0,0,1-.163.353A.642.642,0,0,1,596.357,207.816Z" transform="translate(-593.903 -205.404)" fill="#4c4e52"/></g><path d="M212.888,147.337A14.46,14.46,0,0,0,198.384,160c-.872,7.389,4.163,13.082,11.7,13.223a14.334,14.334,0,0,0,14.593-12.815C225.508,153.126,220.414,147.474,212.888,147.337Zm-2.272,20.58a6.731,6.731,0,0,1-6.459-7.71,8.409,8.409,0,0,1,8.367-7.518c3.933.059,6.793,3.535,6.337,7.7A8.346,8.346,0,0,1,210.616,167.917Z" transform="translate(-45.016 -0.016)" fill="#ec6223"/><path d="M288.241,163.948a8.15,8.15,0,0,1-7,3.941,6.731,6.731,0,0,1-6.46-7.709,8.41,8.41,0,0,1,8.367-7.518,6.3,6.3,0,0,1,5.267,2.938l4.437-4.048a12.1,12.1,0,0,0-9.339-4.242A14.46,14.46,0,0,0,269,159.978c-.872,7.389,4.163,13.082,11.7,13.222a14.305,14.305,0,0,0,11.315-5.134l-3.746-4.144Z" transform="translate(-86.427 0)" fill="#ec6223"/><path d="M138.362,148.968H121.541a4.7,4.7,0,0,0,4.757,5.263s10.191-.007,11.915-.007v.007a6.548,6.548,0,0,1,6.63,7.335A8.252,8.252,0,0,1,136.8,168.9H130.63l.756-7.875a3.254,3.254,0,0,0-3.294-3.644h-1.619s-1.464,15.318-1.606,16.783l11.432-.007h0a14.15,14.15,0,0,0,13.847-13.2C150.478,154.179,145.143,148.968,138.362,148.968Z" transform="translate(0 -0.974)" fill="#ec6223"/><g transform="translate(257.508 147.994)"><path d="M462,148.968l-11.7,25.254h6.348l3.038-6.884h8.094l1.86,6.884h6.547l-6.962-25.254Zm2.894,5.674c.2.984.415,2.039.668,3.02l1.461,5.415h-5.776l2.469-5.44C464.125,156.689,464.515,155.657,464.891,154.642Z" transform="translate(-450.301 -148.968)" fill="#4c4e52"/><path d="M546.056,148.968l-4.082,11.359c-.724,2.119-1.391,4.089-1.977,5.984-.194-2.018-.456-4.008-.7-5.78l-1.735-11.563h-6.18L527.2,160.325c-.754,2.1-1.526,4.251-2.164,6.258-.223-2.032-.488-4.2-.761-6.2l-1.644-11.419h-6.5l4.633,25.254h6.312l4.466-11.8c.711-1.793,1.294-3.43,1.832-5.152.138,1.555.349,3.176.66,5.127l1.836,11.824h6.241l10.211-25.254Z" transform="translate(-488.902 -148.968)" fill="#4c4e52"/></g><path d="M407.189,168.29l1.855-19.322H402.7l-2.419,25.195h16.732l1.509-5.873Z" transform="translate(-163.465 -0.974)" fill="#4c4e52"/><path d="M356.976,149.881l.061-.637h-5.878c-.032.337-.064.673-.1,1.008-.439,4.46-.82,8.922-1.336,13.381-.385,3.324-2.451,5.273-5.55,5.465-.141.009-.689.009-.828,0-3.063-.191-4.755-2.14-4.5-5.465.34-4.459.816-8.921,1.233-13.381.031-.336.065-.671.1-1.008H334.3l-.061.637c-.453,4.723-.925,9.447-1.345,14.17a17.2,17.2,0,0,0,.029,3.032c.474,5.351,4.657,7.294,10.333,7.294,5.208,0,10.231-1.943,11.734-7.294a18.276,18.276,0,0,0,.611-3.032C356.087,159.327,356.522,154.6,356.976,149.881Z" transform="translate(-123.916 -1.136)" fill="#ec6223"/></g></svg>